Coordinates
version=1
nRows=6
nColumns=36
inDegrees=yes

Units are S.I. units (second, meters, Newtons, ...)
If the header above contains a line with 'inDegrees', this indicates whether rotational values are in degrees (yes) or radians (no).

endheader
time	pelvis_tilt	pelvis_list	pelvis_rotation	pelvis_tx	pelvis_ty	pelvis_tz	hip_flexion_r	hip_adduction_r	hip_rotation_r	knee_angle_r	knee_angle_r_beta	ankle_angle_r	subtalar_angle_r	mtp_angle_r	hip_flexion_l	hip_adduction_l	hip_rotation_l	knee_angle_l	knee_angle_l_beta	ankle_angle_l	subtalar_angle_l	mtp_angle_l	lumbar_extension	lumbar_bending	lumbar_rotation	arm_flex_r	arm_add_r	arm_rot_r	elbow_flex_r	pro_sup_r	arm_flex_l	arm_add_l	arm_rot_l	elbow_flex_l	pro_sup_l
      3.57083330	     -5.53935224	     -3.04090253	      3.04429971	      0.35879823	      0.92884435	      0.05578400	      3.52484193	      6.17372635	      4.71907264	      0.40594467	      0.00708507	      4.89952823	    -11.22663402	     -7.49999987	      6.91697797	    -14.04421913	     10.16915974	      7.07031796	      0.12340033	      5.26662150	     -6.66012230	     -7.49999987	     -7.70372447	      2.86742216	      5.56737942	     47.21581264	     -8.87098512	     22.43333418	    133.38107389	    100.35112308	     50.76754805	    -15.71388807	     28.14019188	    136.37835178	     95.58440706
      3.57500000	     -5.53498885	     -3.07784150	      3.02427729	      0.35879087	      0.92710416	      0.05517020	      3.52218361	      6.20539667	      4.41127371	      0.41587646	      0.00725841	      5.06340266	    -10.77203596	     -7.49999987	      6.85857804	    -14.08728976	     10.22433535	      6.97079440	      0.12166331	      5.16979142	     -6.82993499	     -7.49999987	     -7.80231110	      2.94339956	      5.58359905	     47.76915598	     -9.02051174	     22.63585174	    133.76859947	    101.57618184	     51.05654668	    -14.89876923	     28.28462331	    136.53931912	     96.76508248
      3.57916670	     -5.55289542	     -3.07345454	      2.87413027	      0.35889279	      0.92903780	      0.05566286	      3.53060540	      6.20998891	      4.55547099	      0.41161799	      0.00718409	      4.99671847	    -10.74620534	     -7.49999987	      6.76829363	    -14.11719696	      9.93642450	      6.84969044	      0.11954965	      5.19911045	     -6.48076715	     -7.49999987	     -7.93574329	      2.95187999	      5.74502310	     48.54377596	     -9.01748345	     23.18236356	    133.66616626	    101.51243469	     50.79485343	    -14.83582934	     28.60110947	    136.92184654	     96.98918358
      3.58333330	     -5.53043568	     -3.09221414	      2.75379187	      0.35878983	      0.92781255	      0.05562323	      3.49623685	      6.22348406	      4.42258735	      0.40355861	      0.00704343	      5.15226315	    -10.36678894	     -7.49999987	      6.65292907	    -14.18705824	      9.77098552	      6.70960447	      0.11710469	      5.16856927	     -6.33647909	     -7.49999987	     -7.94650344	      2.96200919	      5.94370699	     49.20708344	     -8.93917095	     24.12178765	    134.10599887	    100.23617491	     50.63662722	    -15.06335829	     29.10214381	    137.22743821	     95.79566713
      3.58750000	     -5.68629182	     -3.06929303	      2.63587811	      0.35894607	      0.92865895	      0.05560433	      3.67099508	      6.19317525	      4.12323088	      0.41113796	      0.00717571	      5.48632476	     -9.52551359	     -7.49999987	      6.75309691	    -14.17300259	      9.73667786	      6.63637695	      0.11582663	      5.08083689	     -6.25110247	     -7.49999987	     -7.85006768	      2.86746267	      6.05421817	     49.78102829	     -9.09199776	     25.23203327	    134.60456240	     97.35645696	     50.05298415	    -15.11173260	     29.26352478	    137.95818944	     92.83232846
      3.59166670	     -5.63006932	     -3.04654184	      2.34285998	      0.35458346	      0.92454714	      0.05187425	      3.68367149	      6.13745140	      4.85579067	      0.40666825	      0.00709770	      5.05180769	    -10.83065370	     -7.49999987	      6.60537500	    -14.14123328	      9.38873303	      6.50007502	      0.11344771	      5.17147851	     -6.09965621	     -7.49999987	     -8.05006182	      3.01353726	      5.92074511	     51.04378349	     -9.13004529	     26.20070067	    134.00427356	    101.93426747	     49.32461153	    -15.03392800	     28.43270780	    138.30712799	     97.43305060
